<?xml version="1.0" standalone="no"?>
<!DOCTYPE svg PUBLIC "-//W3C//DTD SVG 20010904//EN"
        "http://www.w3.org/TR/2001/REC-SVG-20010904/DTD/svg10.dtd">
<svg version="1.0" xmlns="http://www.w3.org/2000/svg"
     width="176.000000pt" height="176.000000pt" viewBox="0 0 176.000000 176.000000"
     preserveAspectRatio="xMidYMid meet">

    <g transform="translate(0.000000,176.000000) scale(0.100000,-0.100000)"
       fill="#000000" stroke="none">
        <path d="M858 1633 c-14 -16 -29 -38 -32 -49 -6 -18 -17 -22 -74 -27 l-67 -6
-45 50 c-71 78 -107 63 -162 -71 -27 -65 -31 -88 -32 -171 l-1 -96 38 -46 c20
-25 37 -48 37 -51 0 -10 -83 -7 -143 5 -80 16 -163 4 -183 -27 -22 -32 -11
-65 28 -89 44 -26 68 -36 68 -27 0 16 -16 29 -42 36 -31 7 -52 38 -43 65 6 20
76 34 130 26 89 -14 176 -20 195 -13 13 5 32 1 53 -11 123 -68 349 -34 412 63
9 13 28 26 43 29 15 3 50 14 77 25 137 56 161 63 193 60 51 -4 60 -26 33 -79
-25 -46 -38 -60 -88 -84 -17 -8 -50 -30 -72 -49 -22 -19 -46 -36 -53 -38 -9
-3 -9 -22 1 -79 8 -41 13 -92 13 -114 0 -22 5 -43 12 -47 8 -6 8 -8 -1 -8 -9
0 -13 -18 -13 -58 0 -52 3 -62 30 -87 17 -16 30 -34 30 -40 0 -6 12 -27 26
-46 14 -19 41 -66 60 -106 19 -39 41 -77 49 -83 22 -18 19 -67 -4 -80 -46 -24
-167 6 -189 47 -6 10 -37 36 -68 58 -32 22 -78 60 -101 84 -40 43 -44 44 -112
48 -56 4 -85 12 -146 43 l-76 38 -22 -24 c-16 -19 -30 -24 -68 -24 -80 0 -109
9 -109 35 0 13 7 26 15 29 12 4 13 10 6 24 -6 10 -17 38 -25 62 -16 48 -10 72
24 90 17 9 22 7 32 -15 20 -44 27 -27 21 53 -5 73 -24 119 -44 107 -4 -3 -10
-1 -13 4 -3 5 -18 12 -32 15 -14 4 -48 17 -75 31 -50 24 -67 18 -27 -9 21 -15
21 -16 2 -22 -144 -51 -190 -106 -181 -214 5 -66 22 -100 76 -157 24 -25 39
-49 36 -60 -1 -10 -4 -22 -5 -28 -1 -5 -2 -15 -1 -22 1 -12 84 -75 114 -86 19
-7 73 15 79 33 2 6 36 -7 78 -31 41 -23 113 -62 160 -87 47 -24 90 -48 95 -52
6 -4 37 -22 70 -40 82 -44 90 -52 76 -79 -18 -33 6 -72 64 -103 62 -34 88 -35
112 -4 l19 24 70 -24 c179 -61 406 -3 472 121 10 19 16 56 16 102 1 65 -2 74
-30 110 -17 21 -47 46 -67 56 -36 17 -47 39 -27 52 33 20 -33 96 -101 116 -36
11 -41 10 -65 -12 -18 -16 -29 -21 -39 -14 -7 6 -49 35 -94 65 -92 63 -91 61
-89 201 0 54 -3 103 -7 110 -5 7 -9 26 -11 42 -2 33 21 57 103 109 24 16 46
34 49 42 3 8 11 13 19 10 16 -6 65 76 65 109 0 13 -9 32 -20 42 -34 31 -93 23
-215 -28 -60 -25 -111 -44 -112 -43 -1 1 4 24 12 50 19 62 9 130 -35 241 -48
122 -99 154 -152 98z m-132 -99 c26 3 60 6 76 6 22 0 31 7 40 28 17 39 49 72
69 72 43 0 119 -181 119 -282 0 -198 -236 -304 -445 -201 -93 46 -125 98 -125
203 0 73 52 225 88 259 l26 23 53 -57 53 -58 46 7z m-260 -589 c29 -19 33 -95
5 -95 -27 0 -73 -47 -67 -68 22 -79 28 -132 17 -146 -18 -21 -4 -54 29 -71 41
-21 152 -15 179 9 11 10 27 16 36 12 8 -3 19 -6 23 -6 4 -1 21 -10 37 -20 39
-23 82 -33 171 -39 11 0 41 -20 66 -43 56 -53 106 -91 130 -100 10 -4 18 -12
18 -18 0 -5 7 -10 16 -10 8 0 13 -4 10 -9 -8 -12 11 -25 64 -44 77 -27 131
-26 160 5 25 28 26 58 0 91 -11 14 -20 30 -20 36 0 6 -4 11 -10 11 -5 0 -10 7
-10 15 0 23 -27 73 -71 133 -22 28 -35 52 -30 52 5 0 32 -18 60 -40 28 -22 53
-40 56 -40 3 0 40 -24 83 -53 42 -29 97 -61 122 -72 93 -39 126 -96 110 -193
-15 -91 -71 -140 -199 -173 -145 -38 -273 -8 -436 101 -71 47 -131 81 -305
172 -52 28 -99 53 -105 58 -5 4 -35 21 -65 37 -81 45 -182 105 -261 157 -82
53 -135 150 -119 219 12 51 19 62 53 88 65 50 118 69 177 63 30 -3 65 -12 76
-19z"/>
        <path d="M916 1385 c-28 -7 -57 -23 -66 -35 -10 -13 -21 -21 -26 -18 -5 3 -18
2 -29 -2 -14 -5 -27 -1 -43 13 -19 18 -36 21 -102 22 -109 0 -128 -25 -55 -72
50 -33 106 -43 138 -26 15 7 27 18 27 23 0 15 83 11 104 -5 36 -27 115 4 142
57 12 23 13 33 3 44 -14 17 -29 17 -93 -1z"/>
    </g>
</svg>
